<svg xmlns="http://www.w3.org/2000/svg" viewBox="0 0 772.43 772.69"><defs><style>.cls-1,.cls-2{fill:#aade87;}.cls-1{stroke:#fff;stroke-width:0.25px;}.cls-1,.cls-3{stroke-miterlimit:10;}.cls-3{fill:none;stroke:#aade87;stroke-width:12px;}</style></defs><g id="Layer_2" data-name="Layer 2"><g id="Layer_1-2" data-name="Layer 1"><path class="cls-1" d="M407.24.94c78.5,4.6,150.5,31.1,213.2,78.5,41.3,31.3,78.8,74.7,104.3,121.1,3.7,6.6,6.7,12.5,6.7,13,0,.8-8,5.4-9.5,5.4-.3,0-2.2-3.5-4.4-7.8-16.2-32-47.7-73-76-98.9Q576.89,53,495.84,28.14c-38.3-11.8-75.8-16.8-117.9-15.9-59.4,1.4-108,13.4-161.5,40.1-26.8,13.4-53.7,31.7-79.6,54l-4.1,3.5-3.9-4-3.9-4.1,4.5-4c7.3-6.6,23.2-19.1,34.2-26.9A383.75,383.75,0,0,1,362.94,1C383.54-.16,388.24-.16,407.24.94ZM82.54,158l3.8,3L77,174.74c-29.8,43.6-48.3,87.6-58.5,138.7-5.7,28.1-6.5,38-6.5,73s.8,44.9,6.5,73a373.19,373.19,0,0,0,132.8,219.4c27,21.7,60.4,41.6,90.3,53.7,5.4,2.1,9.8,4.3,9.8,4.9a25.59,25.59,0,0,1-1.7,5.3c-2,5.3-1,5.5-22.7-4.2-96-42.7-172.3-126.6-206.6-227.1a424.49,424.49,0,0,1-19.2-88.5c-1.5-15-1.5-58.2.1-73.5a420.37,420.37,0,0,1,18.5-86A366.45,366.45,0,0,1,51,194.34c7.6-13.2,25.3-39.4,26.6-39.4C78.14,154.94,80.34,156.34,82.54,158Zm678.9,136.9c6.5,26.7,9.8,52,10.7,81.5,2.7,91.3-27.4,180.3-85.3,252.5-14.1,17.6-41.4,44.8-58.4,58.4-59.1,47-123.9,74.1-200,83.3-28.6,3.4-76.3,2.2-105.7-2.8-5.9-1-6.3-1.3-6.2-3.8.2-4.6,1.5-8.6,2.6-8.4.7.2,8.3,1.3,17,2.5,13.8,2,20,2.2,49.3,2.3,36.8,0,47.1-.9,75.5-6.6a375.43,375.43,0,0,0,230.4-149.7c36.9-51.6,60.9-114.9,67.6-178.6,1.9-18.8,2-58.5,0-76.9-2.2-20.4-6.8-45.7-11-60.1-.8-2.7-1.4-5-1.2-5.2s2.5-.8,5.2-1.6c3.9-1.1,5.2-1.2,5.7-.2C758,282.14,759.74,288.24,761.44,294.94Z"/><path class="cls-2" d="M297.46,174.16c15.58,4.78,27.22,14.54,35.11,29.92,5.82,11.22,6.86,15.16,6.86,28v15l8.73,3.95c16.82,7.27,31.78,26.6,37,47.16l2.49,9.35L353.14,357c-18.9,27-34.49,50.07-34.49,51.11s14.34,2.08,31.79,2.29l32,.62-33,46.54L316.58,504.3v96.82H243.86V506.17l-16-1.25c-49.66-4.15-86.22-49.86-77.7-96.82,3.32-17.24,12.67-35.11,24.51-46.12l9.14-8.52-4.57-9.56c-3.11-6.85-5-15-5.61-27-.83-16.62-.62-17.86,6.65-32.62,8.1-16.2,18.7-27.42,32.83-33.86l7.69-3.53.2-14.75c0-8.11,1.25-18.08,2.91-21.82C236.79,180,266.92,165.23,297.46,174.16Zm238.1,55.47c21.19,30.34,39.27,56.72,39.89,58.59,1,2.7-1.66,3.33-18.49,3.74l-19.74.62L569,338.29c17.66,25.14,32,46.33,32,47.17.2,1-12.47,1.66-27.85,1.66s-28,.62-28,1.24,17.24,26,38.64,56.1C605,474.79,622.82,501,623.44,502.64c.84,2.49-5.81,2.9-45.91,2.9h-47v95.58H457.86V505.54h-47c-37.4,0-46.75-.62-45.92-2.7.42-1.45,18.91-28,40.52-59.21l39.68-56.51H416.3c-16,0-29.08-.63-29.08-1.25s14.54-21.81,32.2-47.16l32.2-46.13L431.68,292c-16.83-.41-19.74-1-18.7-3.74,2.7-7.06,81-117,82.48-115.72C496.08,173.54,514.16,199.09,535.56,229.63Z"/><circle class="cls-3" cx="386.21" cy="386.35" r="330.39"/></g></g></svg>