<?xml version="1.0" encoding="utf-8"?>
<!-- Generator: Adobe Illustrator 24.1.2, SVG Export Plug-In . SVG Version: 6.00 Build 0)  -->
<svg version="1.1" id="Layer_1" xmlns="http://www.w3.org/2000/svg" xmlns:xlink="http://www.w3.org/1999/xlink" x="0px" y="0px"
	 viewBox="0 0 772.4 772.7" style="enable-background:new 0 0 772.4 772.7;" xml:space="preserve">
<style type="text/css">
	.st0{fill:#FFFFFF;stroke:#FFFFFF;stroke-width:0.25;stroke-miterlimit:10;}
	.st1{fill:#FFFFFF;}
	.st2{fill:none;stroke:#FFFFFF;stroke-width:12;stroke-miterlimit:10;}
</style>
<g id="Layer_2_1_">
	<g id="Layer_1-2">
		<path class="st0" d="M407.2,0.9C485.7,5.5,557.7,32,620.4,79.4c41.3,31.3,78.8,74.7,104.3,121.1c3.7,6.6,6.7,12.5,6.7,13
			c0,0.8-8,5.4-9.5,5.4c-0.3,0-2.2-3.5-4.4-7.8c-16.2-32-47.7-73-76-98.9c-43.1-39.5-91.7-67.5-145.7-84.1
			C457.5,16.3,420,11.3,377.9,12.2c-59.4,1.4-108,13.4-161.5,40.1c-26.8,13.4-53.7,31.7-79.6,54l-4.1,3.5l-3.9-4l-3.9-4.1l4.5-4
			c7.3-6.6,23.2-19.1,34.2-26.9C222.2,29.4,291.3,5.2,362.9,1C383.5-0.2,388.2-0.2,407.2,0.9z M82.5,158l3.8,3L77,174.7
			c-29.8,43.6-48.3,87.6-58.5,138.7c-5.7,28.1-6.5,38-6.5,73s0.8,44.9,6.5,73c17,86.5,64,164.3,132.8,219.4
			c27,21.7,60.4,41.6,90.3,53.7c5.4,2.1,9.8,4.3,9.8,4.9c-0.4,1.8-0.9,3.6-1.7,5.3c-2,5.3-1,5.5-22.7-4.2
			C131,695.8,54.7,611.9,20.4,511.4c-9.5-28.7-16-58.4-19.2-88.5c-1.5-15-1.5-58.2,0.1-73.5c3.1-29.2,9.3-58.1,18.5-86
			c8-24.1,18.4-47.2,31.2-69.1c7.6-13.2,25.3-39.4,26.6-39.4C78.1,154.9,80.3,156.3,82.5,158z M761.4,294.9
			c6.5,26.7,9.8,52,10.7,81.5c2.7,91.3-27.4,180.3-85.3,252.5c-14.1,17.6-41.4,44.8-58.4,58.4c-59.1,47-123.9,74.1-200,83.3
			c-28.6,3.4-76.3,2.2-105.7-2.8c-5.9-1-6.3-1.3-6.2-3.8c0.2-4.6,1.5-8.6,2.6-8.4c0.7,0.2,8.3,1.3,17,2.5c13.8,2,20,2.2,49.3,2.3
			c36.8,0,47.1-0.9,75.5-6.6c93-19,175.3-72.5,230.4-149.7c36.9-51.6,60.9-114.9,67.6-178.6c1.9-18.8,2-58.5,0-76.9
			c-2.2-20.4-6.8-45.7-11-60.1c-0.8-2.7-1.4-5-1.2-5.2s2.5-0.8,5.2-1.6c3.9-1.1,5.2-1.2,5.7-0.2C758,282.1,759.7,288.2,761.4,294.9
			L761.4,294.9z"/>
		<path class="st1" d="M297.5,174.2c15.6,4.8,27.2,14.5,35.1,29.9c5.8,11.2,6.9,15.2,6.9,28v15l8.7,3.9c16.8,7.3,31.8,26.6,37,47.2
			l2.5,9.4L353.1,357c-18.9,27-34.5,50.1-34.5,51.1s14.3,2.1,31.8,2.3l32,0.6l-33,46.5l-32.9,46.7v96.8h-72.7v-94.9l-16-1.2
			c-49.7-4.1-86.2-49.9-77.7-96.8c3.3-17.2,12.7-35.1,24.5-46.1l9.1-8.5l-4.6-9.6c-3.1-6.9-5-15-5.6-27c-0.8-16.6-0.6-17.9,6.6-32.6
			c8.1-16.2,18.7-27.4,32.8-33.9l7.7-3.5l0.2-14.8c0-8.1,1.2-18.1,2.9-21.8C236.8,180,266.9,165.2,297.5,174.2z M535.6,229.6
			c21.2,30.3,39.3,56.7,39.9,58.6c1,2.7-1.7,3.3-18.5,3.7l-19.7,0.6l31.8,45.7c17.7,25.1,32,46.3,32,47.2c0.2,1-12.5,1.7-27.8,1.7
			s-28,0.6-28,1.2s17.2,26,38.6,56.1c21.2,30.3,39,56.5,39.6,58.2c0.8,2.5-5.8,2.9-45.9,2.9h-47v95.6h-72.7v-95.6h-47
			c-37.4,0-46.8-0.6-45.9-2.7c0.4-1.5,18.9-28,40.5-59.2l39.7-56.5h-28.8c-16,0-29.1-0.6-29.1-1.2s14.5-21.8,32.2-47.2l32.2-46.1
			l-19.9-0.6c-16.8-0.4-19.7-1-18.7-3.7c2.7-7.1,81-117,82.5-115.7C496.1,173.5,514.2,199.1,535.6,229.6z"/>
		<circle class="st2" cx="386.2" cy="386.4" r="330.4"/>
	</g>
</g>
</svg>
